HIERARCHY
ROOT joint_0
{
	OFFSET 0.000000 0.000000 0.000000
	CHANNELS 6 Xposition Yposition Zposition Zrotation Yrotation Xrotation 
	JOINT joint_1
	{
		OFFSET 14.113007 -2.961990 123.953979
		CHANNELS 3 Zrotation Yrotation Xrotation
		JOINT joint_2
		{
			OFFSET 0.764000 -2.434006 113.871948
			CHANNELS 3 Zrotation Yrotation Xrotation
			JOINT joint_3
			{
				OFFSET 0.186996 -2.169998 113.753052
				CHANNELS 3 Zrotation Yrotation Xrotation
				JOINT joint_4
				{
					OFFSET 16.096001 -2.720001 160.853027
					CHANNELS 3 Zrotation Yrotation Xrotation
					JOINT joint_5
					{
						OFFSET 34.392006 -0.188995 92.567017
						CHANNELS 3 Zrotation Yrotation Xrotation
						End Site
						{
							OFFSET 0.000000 0.000000 0.000000
						}
					}
				}
				JOINT joint_6
				{
					OFFSET 9.183998 -36.684006 89.597046
					CHANNELS 3 Zrotation Yrotation Xrotation
					JOINT joint_7
					{
						OFFSET 0.486000 -164.365997 -28.984009
						CHANNELS 3 Zrotation Yrotation Xrotation
						JOINT joint_8
						{
							OFFSET 38.899002 -34.967010 -291.651978
							CHANNELS 3 Zrotation Yrotation Xrotation
							JOINT joint_9
							{
								OFFSET 41.714005 -45.890991 -258.857056
								CHANNELS 3 Zrotation Yrotation Xrotation
								End Site
								{
									OFFSET 0.000000 0.000000 0.000000
								}
							}
						}
					}
				}
				JOINT joint_10
				{
					OFFSET 8.867004 33.650002 90.817993
					CHANNELS 3 Zrotation Yrotation Xrotation
					JOINT joint_11
					{
						OFFSET 0.018997 164.299999 -29.368042
						CHANNELS 3 Zrotation Yrotation Xrotation
						JOINT joint_12
						{
							OFFSET 29.440994 30.887997 -293.216919
							CHANNELS 3 Zrotation Yrotation Xrotation
							JOINT joint_13
							{
								OFFSET 46.174011 54.490005 -256.422058
								CHANNELS 3 Zrotation Yrotation Xrotation
								End Site
								{
									OFFSET 0.000000 0.000000 0.000000
								}
							}
						}
					}
				}
			}
		}
	}
	JOINT joint_14
	{
		OFFSET -2.264000 -89.466995 -116.150024
		CHANNELS 3 Zrotation Yrotation Xrotation
		JOINT joint_15
		{
			OFFSET -16.400993 -17.452988 -493.781982
			CHANNELS 3 Zrotation Yrotation Xrotation
			JOINT joint_16
			{
				OFFSET -50.497004 -13.404022 -424.754013
				CHANNELS 3 Zrotation Yrotation Xrotation
				JOINT joint_17
				{
					OFFSET 198.546007 -19.341003 -89.309000
					CHANNELS 3 Zrotation Yrotation Xrotation
					End Site
					{
						OFFSET 0.000000 0.000000 0.000000
					}
				}
			}
		}
	}
	JOINT joint_18
	{
		OFFSET -0.867996 96.016006 -110.817993
		CHANNELS 3 Zrotation Yrotation Xrotation
		JOINT joint_19
		{
			OFFSET -10.130997 24.658998 -493.645020
			CHANNELS 3 Zrotation Yrotation Xrotation
			JOINT joint_20
			{
				OFFSET -48.871004 19.434999 -424.714005
				CHANNELS 3 Zrotation Yrotation Xrotation
				JOINT joint_21
				{
					OFFSET 195.579996 24.926001 -94.327003
					CHANNELS 3 Zrotation Yrotation Xrotation
					End Site
					{
						OFFSET 0.000000 0.000000 0.000000
					}
				}
			}
		}
	}
}
MOTION
Frames: 16
Frame Time: 0.016667
-3034.567871 910.077026 1145.444946 3.771792 -2.027746 -1.840648 0.143857 -1.434973 1.683367 0.203226 0.193042 -0.324750 0.193642 -0.300275 0.259513 -0.569966 -0.283456 1.517808 0.000000 0.000000 0.000000 -0.635578 3.196478 -0.513406 -0.309624 3.139758 -0.998096 0.665283 -4.017150 -0.199555 0.000000 0.000000 0.000000 -0.459032 -0.254060 0.840863 0.231852 -0.131299 1.455762 0.234617 -0.036844 1.360544 0.000000 0.000000 0.000000 3.841995 1.563557 4.484290 4.172445 -2.700949 0.082411 3.973968 -1.187564 1.656110 0.000000 0.000000 0.000000 -0.876672 0.912398 1.537037 -1.012518 -2.221808 0.383361 -0.838585 -0.339921 -0.359973 0.000000 0.000000 0.000000 
-3034.583740 910.074158 1145.412964 3.761738 -2.021383 -1.837026 0.144164 -1.436215 1.680966 0.203545 0.193474 -0.324321 0.193967 -0.299583 0.259151 -0.571103 -0.272672 1.520987 0.000000 0.000000 0.000000 -0.623152 3.188913 -0.484288 -0.312241 3.134627 -1.034986 0.672996 -4.036635 -0.171738 0.000000 0.000000 0.000000 -0.455518 -0.251709 0.827134 0.228512 -0.130146 1.470539 0.224109 -0.060867 1.330165 0.000000 0.000000 0.000000 3.845027 1.557867 4.476192 4.175145 -2.714385 0.088012 3.975529 -1.149812 1.660467 0.000000 0.000000 0.000000 -0.874024 0.898142 1.533653 -1.008652 -2.211329 0.382476 -0.834682 -0.325613 -0.359921 0.000000 0.000000 0.000000 
-3034.623047 910.067444 1145.380981 3.752369 -2.015878 -1.832510 0.144784 -1.433395 1.677102 0.204014 0.192246 -0.324326 0.194499 -0.297248 0.258869 -0.572259 -0.263831 1.524213 0.000000 0.000000 0.000000 -0.615019 3.180017 -0.453342 -0.314817 3.127389 -1.072354 0.679731 -4.055319 -0.149221 0.000000 0.000000 0.000000 -0.454225 -0.250525 0.812911 0.225375 -0.129730 1.487440 0.213775 -0.084881 1.300791 0.000000 0.000000 0.000000 3.848217 1.549370 4.468332 4.177791 -2.722297 0.091967 3.977000 -1.114543 1.664546 0.000000 0.000000 0.000000 -0.871710 0.885071 1.529709 -1.005337 -2.204018 0.381181 -0.831179 -0.310872 -0.360116 0.000000 0.000000 0.000000 
-3034.694580 910.049927 1145.350952 3.741505 -2.011028 -1.827684 0.146582 -1.427013 1.670965 0.205570 0.192930 -0.323273 0.196087 -0.295047 0.258616 -0.573524 -0.260137 1.527697 0.000000 0.000000 0.000000 -0.611859 3.168783 -0.420601 -0.317034 3.116867 -1.107694 0.684565 -4.072255 -0.136802 0.000000 0.000000 0.000000 -0.456631 -0.251440 0.797619 0.222684 -0.130674 1.506723 0.204226 -0.107737 1.274467 0.000000 0.000000 0.000000 3.852463 1.534712 4.463088 4.181183 -2.719846 0.091608 3.978880 -1.082136 1.668539 0.000000 0.000000 0.000000 -0.869386 0.872219 1.527413 -1.002045 -2.199026 0.377106 -0.827839 -0.295015 -0.360529 0.000000 0.000000 0.000000 
-3034.790771 910.029480 1145.321045 3.731445 -2.007171 -1.821938 0.148207 -1.415693 1.663814 0.206750 0.190930 -0.323173 0.197378 -0.290890 0.258108 -0.575123 -0.257830 1.532070 0.000000 0.000000 0.000000 -0.611015 3.156075 -0.385691 -0.319256 3.104452 -1.143765 0.688503 -4.088385 -0.129173 0.000000 0.000000 0.000000 -0.459886 -0.253288 0.782203 0.220185 -0.132368 1.528125 0.194842 -0.130905 1.249473 0.000000 0.000000 0.000000 3.856624 1.517337 4.457808 4.184247 -2.711825 0.090096 3.980468 -1.052157 1.672170 0.000000 0.000000 0.000000 -0.867454 0.860675 1.524269 -0.999387 -2.197349 0.372921 -0.824933 -0.278645 -0.361216 0.000000 0.000000 0.000000 
-3034.892822 910.014343 1145.282959 3.724990 -2.003411 -1.814668 0.149881 -1.403102 1.654016 0.207841 0.185495 -0.321755 0.198686 -0.283933 0.257723 -0.575777 -0.251704 1.533978 0.000000 0.000000 0.000000 -0.616632 3.145248 -0.352184 -0.321814 3.092834 -1.182855 0.693284 -4.105119 -0.116987 0.000000 0.000000 0.000000 -0.463611 -0.255112 0.768075 0.217830 -0.133931 1.549708 0.185669 -0.152543 1.223851 0.000000 0.000000 0.000000 3.859903 1.502969 4.449848 4.186566 -2.708803 0.089576 3.981480 -1.023695 1.675391 0.000000 0.000000 0.000000 -0.865957 0.847617 1.518370 -0.997069 -2.193645 0.370013 -0.822439 -0.264809 -0.361778 0.000000 0.000000 0.000000 
-3034.991943 910.009644 1145.239014 3.717649 -1.972853 -1.805966 0.152422 -1.418273 1.642533 0.210497 0.174933 -0.318605 0.201668 -0.275566 0.255498 -0.575696 -0.229029 1.534107 0.000000 0.000000 0.000000 -0.635099 3.140684 -0.321495 -0.324744 3.085289 -1.224360 0.700027 -4.124935 -0.095988 0.000000 0.000000 0.000000 -0.461858 -0.253206 0.759106 0.215387 -0.132772 1.568037 0.176371 -0.173566 1.196809 0.000000 0.000000 0.000000 3.863966 1.463922 4.435890 4.188723 -2.715420 0.092056 3.982538 -0.993482 1.678799 0.000000 0.000000 0.000000 -0.864224 0.803686 1.509596 -0.992834 -2.186914 0.368774 -0.818207 -0.253368 -0.361198 0.000000 0.000000 0.000000 
-3035.097900 910.011230 1145.187988 3.714296 -1.942349 -1.795774 0.154863 -1.431829 1.629030 0.212893 0.159994 -0.314404 0.204539 -0.263120 0.252567 -0.575171 -0.203312 1.533088 0.000000 0.000000 0.000000 -0.659876 3.137628 -0.291324 -0.328032 3.078193 -1.269502 0.707707 -4.145540 -0.070025 0.000000 0.000000 0.000000 -0.460666 -0.251593 0.751619 0.213102 -0.131780 1.586886 0.167318 -0.193064 1.169325 0.000000 0.000000 0.000000 3.867002 1.427931 4.419037 4.189985 -2.727415 0.095989 3.982929 -0.964682 1.681767 0.000000 0.000000 0.000000 -0.863183 0.758153 1.497941 -0.989202 -2.178300 0.369017 -0.814569 -0.243785 -0.360666 0.000000 0.000000 0.000000 
-3035.218506 910.018066 1145.121948 3.733440 -1.989875 -1.783577 0.151665 -1.363628 1.615073 0.207291 0.147025 -0.312874 0.199535 -0.243045 0.249529 -0.574926 -0.196089 1.532635 0.000000 0.000000 0.000000 -0.666659 3.126449 -0.254219 -0.332314 3.066268 -1.323522 0.714518 -4.161777 -0.044485 0.000000 0.000000 0.000000 -0.471291 -0.258211 0.738384 0.211491 -0.136772 1.617623 0.158491 -0.210722 1.140863 0.000000 0.000000 0.000000 3.861417 1.481192 4.406408 4.186206 -2.740001 0.098208 3.978661 -0.944884 1.681766 0.000000 0.000000 0.000000 -0.865741 0.793921 1.481250 -0.993335 -2.164494 0.371727 -0.818611 -0.240374 -0.363046 0.000000 0.000000 0.000000 
-3035.438477 910.031250 1145.048950 3.822907 -2.183034 -1.765052 0.129661 -1.134643 1.595496 0.178258 0.140088 -0.314779 0.171326 -0.206767 0.246145 -0.575133 -0.237393 1.532939 0.000000 0.000000 0.000000 -0.638714 3.092769 -0.205862 -0.337254 3.037984 -1.392344 0.719871 -4.170675 -0.019456 0.000000 0.000000 0.000000 -0.514943 -0.287588 0.713467 0.210733 -0.158449 1.668439 0.150869 -0.222595 1.112115 0.000000 0.000000 0.000000 3.830634 1.698189 4.397729 4.163647 -2.751056 0.098956 3.956947 -0.939912 1.672509 0.000000 0.000000 0.000000 -0.885122 0.971008 1.452949 -1.021222 -2.135505 0.376525 -0.845899 -0.241861 -0.375986 0.000000 0.000000 0.000000 
-3035.673340 910.049744 1144.961060 3.934320 -2.455051 -1.744898 0.102540 -0.821330 1.574837 0.141540 0.132465 -0.317893 0.135612 -0.161863 0.241471 -0.575818 -0.297132 1.534282 0.000000 0.000000 0.000000 -0.593634 3.051039 -0.150842 -0.343122 3.004785 -1.469456 0.724500 -4.175726 0.005545 0.000000 0.000000 0.000000 -0.571657 -0.325443 0.684499 0.210637 -0.186137 1.729873 0.143717 -0.232018 1.083033 0.000000 0.000000 0.000000 3.791138 2.005425 4.393254 4.136205 -2.762913 0.098060 3.930701 -0.943221 1.660398 0.000000 0.000000 0.000000 -0.907922 1.230575 1.419554 -1.056806 -2.102055 0.383901 -0.880682 -0.248124 -0.391924 0.000000 0.000000 0.000000 
-3035.678223 910.066284 1144.828003 3.942845 -2.680440 -1.735238 0.105465 -0.583546 1.564383 0.136830 0.115920 -0.314914 0.132029 -0.117369 0.236906 -0.574735 -0.323958 1.531163 0.000000 0.000000 0.000000 -0.561300 3.030463 -0.099183 -0.350956 2.990881 -1.542644 0.728813 -4.180118 0.028844 0.000000 0.000000 0.000000 -0.594322 -0.340728 0.658306 0.211069 -0.197225 1.789658 0.134472 -0.249526 1.052037 0.000000 0.000000 0.000000 3.785320 2.265176 4.400436 4.141289 -2.777769 0.092553 3.934727 -0.944636 1.661985 0.000000 0.000000 0.000000 -0.898611 1.474342 1.398635 -1.060424 -2.090260 0.396319 -0.884230 -0.263886 -0.391632 0.000000 0.000000 0.000000 
-3035.631836 910.013367 1144.636963 3.733920 -2.768725 -1.743350 0.178688 -0.513328 1.571360 0.206998 0.083828 -0.297551 0.203468 -0.078146 0.229940 -0.568202 -0.276449 1.514268 0.000000 0.000000 0.000000 -0.549822 3.035514 -0.041884 -0.362077 2.999515 -1.617956 0.731276 -4.180866 0.043882 0.000000 0.000000 0.000000 -0.616461 -0.335256 0.599240 0.217942 -0.186475 1.936707 0.115229 -0.272102 0.970921 0.000000 0.000000 0.000000 3.853318 2.332560 4.425389 4.211735 -2.751979 0.081434 4.000364 -0.937078 1.691968 0.000000 0.000000 0.000000 -0.826584 1.589339 1.409857 -0.993599 -2.072961 0.402115 -0.822366 -0.284243 -0.359292 0.000000 0.000000 0.000000 
-3035.354248 909.957642 1144.401001 3.422270 -2.809667 -1.761316 0.282108 -0.520912 1.589059 0.309472 0.044437 -0.274367 0.307308 -0.040320 0.223162 -0.559865 -0.193479 1.492849 0.000000 0.000000 0.000000 -0.551818 3.062226 0.012857 -0.375247 3.027833 -1.690036 0.733444 -4.181215 0.057032 0.000000 0.000000 0.000000 -0.606094 -0.306909 0.541508 0.225544 -0.158519 2.083386 0.093965 -0.302615 0.888220 0.000000 0.000000 0.000000 3.955273 2.351884 4.462089 4.314731 -2.729360 0.065253 4.096273 -0.928627 1.735564 0.000000 0.000000 0.000000 -0.722399 1.687704 1.433544 -0.894705 -2.077253 0.412146 -0.729251 -0.314218 -0.310696 0.000000 0.000000 0.000000 
-3034.069580 910.095764 1144.129028 3.226579 -2.946291 -1.777649 0.328070 -0.495081 1.616708 0.353780 0.013196 -0.277294 0.352865 0.000410 0.228924 -0.557690 -0.138981 1.487351 0.000000 0.000000 0.000000 -0.565345 3.125978 0.033862 -0.388274 3.091327 -1.733602 0.740416 -4.193273 0.086860 0.000000 0.000000 0.000000 -0.410768 -0.218556 0.600241 0.216185 -0.106655 1.949826 0.092246 -0.361139 0.949609 0.000000 0.000000 0.000000 4.014465 2.615682 4.499898 4.389834 -2.839333 0.041301 4.163835 -0.936644 1.764924 0.000000 0.000000 0.000000 -0.641361 2.006269 1.427784 -0.838227 -2.210264 0.462188 -0.667531 -0.370218 -0.273889 0.000000 0.000000 0.000000 
-3032.183350 910.688843 1143.790039 3.275260 -3.324102 -1.797155 0.265986 -0.240529 1.666785 0.283515 -0.024146 -0.338666 0.284633 0.084449 0.265876 -0.575392 -0.130173 1.534359 0.000000 0.000000 0.000000 -0.586384 3.129650 0.072340 -0.403684 3.093591 -1.789618 0.711561 -4.096639 0.004452 0.000000 0.000000 0.000000 0.087083 -0.142250 0.796944 0.181335 -0.125480 1.218887 0.185638 -0.418499 1.549912 0.000000 0.000000 0.000000 3.981704 3.294486 4.531208 4.396502 -3.117475 0.025294 4.166248 -0.957752 1.763826 0.000000 0.000000 0.000000 -0.613092 2.689294 1.369429 -0.863472 -2.505970 0.573635 -0.670295 -0.449848 -0.265069 0.000000 0.000000 0.000000 
